<svg xmlns="http://www.w3.org/2000/svg" viewBox="0 0 500 500"><g id="freepik--background-complete--inject-76"><path d="M263.464,446.741l-9.128-140.24,.309-.022,10.366,140.154c-.516,.038-1.031,.074-1.547,.108Zm-28.325-.097l-1.348-.104,11.207-140.088,.507,.038-10.366,140.154Zm58.402-4.202l-30.662-137.151,.665-.149,31.147,137.041-1.15,.259Zm-88.063-.221l-1.323-.305,31.934-136.86,.489,.112-31.101,137.052Zm116.65-8.395l-50.478-131.158,.368-.143,51.477,130.768c-.454,.179-.909,.357-1.367,.533Zm-145.391-.441l-1.261-.499,52.051-130.541,.475,.188-51.265,130.852Zm172.63-12.478l-69.725-122.019,.468-.269,70.398,121.633-1.141,.655Zm-199.758-.588c-.417-.241-.834-.484-1.249-.728l71.237-121.143,.361,.211-70.349,121.661Zm224.487-16.055l-86.827-110.506,.27-.214,87.742,109.781c-.393,.315-.789,.628-1.185,.939Zm-249.202-.801c-.437-.348-.872-.697-1.305-1.049l88.699-109.009,.145,.116-87.539,109.942Zm271.388-19.506l-102.423-96.229,.325-.348,103.043,95.565-.945,1.012Zm-293.394-.891l-.881-.954,103.441-95.133,.379,.411-102.939,95.676Zm312.155-22.27l-115.384-80.232,.171-.248,116.098,79.194c-.293,.43-.587,.857-.885,1.285Zm-330.848-1.108c-.278-.405-.554-.813-.828-1.221l116.58-78.482,.214,.315-115.965,79.388Zm346.184-24.985l-126.274-61.688,.287-.589,126.515,61.19-.529,1.087Zm-361.238-.986c-.215-.446-.43-.892-.642-1.34l127.004-60.171,.159,.331-126.521,61.179Zm372.35-26.748l-133.968-42.457,.102-.328,134.322,41.33c-.15,.485-.301,.971-.455,1.456Zm-383.379-1.266c-.14-.455-.279-.909-.416-1.363l134.575-40.497,.127,.414-134.285,41.446Zm390.291-28.178l-138.873-21.556,.078-.514,138.997,20.746-.202,1.325Zm-396.975-1.087c-.072-.476-.141-.952-.21-1.427l139.115-19.933,.06,.412-138.966,20.949Zm399.379-28.509l-140.531-1.247v-.58h140.537v.274c0,.518-.002,1.037-.006,1.553Zm-261.087-1.416H49.185l.003-1.295,140.534,.729v.565Zm119.92-8.988l-.044-.296,138.935-21.151c.079,.514,.155,1.029,.229,1.544l-139.12,19.904Zm-119.255-.209l-139.031-20.513c.072-.486,.145-.972,.221-1.457l138.868,21.588-.058,.381Zm117.38-8.281l-.197-.641,134.267-41.505,.35,1.137-134.42,41.009Zm-115.423-.365L58.005,187.395l.413-1.327,134.069,42.141-.142,.457Zm112.197-8.034l-.242-.504,126.481-61.261,.562,1.167-126.801,60.598Zm-108.953-.27l-126.596-61.022,.568-1.171,126.274,61.688-.246,.506Zm104.536-7.499l-.36-.529,115.964-79.388,.685,1.005-116.29,78.912Zm-99.998-.367l-116.163-79.098c.272-.399,.545-.797,.82-1.194l115.577,79.952-.234,.341Zm94.184-6.992l-.178-.191,102.837-95.787c.363,.39,.725,.782,1.084,1.174l-103.743,94.803Zm-88.538-.088L102.633,109.956c.327-.353,.656-.706,.986-1.057l102.436,96.215-.282,.302Zm81.999-6.026l-.31-.248,87.539-109.942c.381,.303,.763,.609,1.143,.916l-88.371,109.274Zm-75.353-.152L124.55,89.559c.393-.315,.788-.629,1.184-.941l86.955,110.405-.271,.215Zm67.99-4.937l-.405-.236,70.193-121.751,1.205,.7-70.993,121.287Zm-60.558-.15l-70.554-121.543c.416-.242,.833-.481,1.251-.72l69.658,122.058-.356,.205Zm52.424-3.828l-.368-.146,51.195-130.879c.458,.179,.913,.359,1.367,.541l-52.194,130.484Zm-44.329-.087L176.288,59.539c.461-.182,.924-.363,1.387-.541l50.616,131.104-.345,.135Zm35.833-2.577l-.37-.085,30.859-137.106c.482,.109,.963,.219,1.444,.331l-31.933,136.86Zm-27.357-.046l-31.343-136.996c.488-.112,.977-.222,1.467-.33l30.223,137.248-.348,.078Zm18.436-1.33l-.395-.03,10.16-140.168c.487,.035,.973,.072,1.458,.111l-11.223,140.087Zm-9.527-.015l-10.588-140.137c.485-.037,.971-.071,1.458-.104l9.527,140.213-.397,.028Z" style="fill:#e6e6e6;"></path><g><g><path d="M388.041,329.604c21.917-2.007,42.092-17.247,50.015-37.779-20.755,1.699-41.197,18.915-50.015,37.779" style="fill:#e0e0e0;"></path><path d="M403.103,282.016c2.087-21.909-9.151-44.558-27.861-56.148-2.175,20.71,10.956,43.988,27.861,56.148" style="fill:#e0e0e0;"></path><path d="M402.489,281.488c20.168-8.809,34.516-29.629,35.568-51.612-19.163,8.15-33.141,30.93-35.568,51.612" style="fill:#e0e0e0;"></path><path d="M405.167,234.149c-2.662-21.847-18.498-41.557-39.259-48.863,2.319,20.695,20.139,40.612,39.259,48.863" style="fill:#e0e0e0;"></path><path d="M405.465,234.792c17.809-12.931,27.355-36.344,23.666-58.041-16.968,12.072-25.733,37.32-23.666,58.041" style="fill:#e0e0e0;"></path><path d="M398.982,193.302c4.302-21.584-4.577-45.257-22.012-58.688-4.268,20.382,6.43,44.873,22.012,58.688" style="fill:#e0e0e0;"></path><path d="M390.579,329.474c6.653-20.978,.436-45.486-15.414-60.755-6.487,19.788,1.449,45.308,15.414,60.755" style="fill:#e0e0e0;"></path><path d="M367.239,369.838c11.604-18.701,11.598-43.985-.014-62.68-11.15,17.587-9.727,44.275,.014,62.68" style="fill:#e0e0e0;"></path><path d="M365.986,370.198c21.738,3.439,45.039-6.377,57.764-24.333-20.536-3.453-44.581,8.213-57.764,24.333" style="fill:#e0e0e0;"></path><path d="M335.201,406.215c15.642-15.482,21.528-40.071,14.592-60.958-14.942,14.505-19.777,40.79-14.592,60.958" style="fill:#e0e0e0;"></path><path d="M335.064,405.149c20.338,8.41,45.285,4.294,61.844-10.202-19.166-8.143-45.268-2.401-61.844,10.202" style="fill:#e0e0e0;"></path><path d="M304.602,430.796c15.642-15.482,21.528-40.071,14.592-60.958-14.941,14.505-19.777,40.79-14.592,60.958" style="fill:#e0e0e0;"></path><path d="M302.592,430.028c20.338,8.41,45.285,4.294,61.844-10.202-19.166-8.143-45.268-2.401-61.844,10.202" style="fill:#e0e0e0;"></path><path d="M300.691,431.711l-.512-.859c42.489-25.269,75.168-64.78,92.015-111.258,16.846-46.477,17.075-97.75,.646-144.377l.943-.332c16.506,46.844,16.275,98.357-.649,145.049-16.925,46.694-49.755,86.392-92.442,111.777Z" style="fill:#e0e0e0;"></path></g><g><path d="M113.111,326.198c-22.422-2.053-43.062-17.644-51.168-38.65,21.233,1.738,42.146,19.351,51.168,38.65" style="fill:#e0e0e0;"></path><path d="M97.702,277.513c-2.135-22.414,9.362-45.585,28.503-57.442,2.225,21.187-11.209,45.001-28.503,57.442" style="fill:#e0e0e0;"></path><path d="M98.331,276.973c-20.633-9.012-35.311-30.311-36.387-52.801,19.604,8.338,33.904,31.642,36.387,52.801" style="fill:#e0e0e0;"></path><path d="M95.591,228.543c2.723-22.35,18.924-42.515,40.163-49.989-2.372,21.171-20.603,41.548-40.163,49.989" style="fill:#e0e0e0;"></path><path d="M95.286,229.201c-18.219-13.229-27.985-37.182-24.211-59.378,17.359,12.35,26.326,38.18,24.211,59.378" style="fill:#e0e0e0;"></path><path d="M101.918,186.755c-4.402-22.081,4.682-46.3,22.519-60.041,4.367,20.851-6.578,45.907-22.519,60.041" style="fill:#e0e0e0;"></path><path d="M110.515,326.065c-6.807-21.462-.446-46.534,15.769-62.155,6.637,20.244-1.482,46.352-15.769,62.155" style="fill:#e0e0e0;"></path><path d="M134.393,367.359c-11.871-19.132-11.865-44.998,.015-64.125,11.407,17.993,9.952,45.296-.015,64.125" style="fill:#e0e0e0;"></path><path d="M135.674,367.727c-22.239,3.518-46.077-6.524-59.095-24.894,21.009-3.532,45.608,8.403,59.095,24.894" style="fill:#e0e0e0;"></path><path d="M167.17,404.574c-16.003-15.839-22.025-40.995-14.929-62.363,15.286,14.839,20.233,41.73,14.929,62.363" style="fill:#e0e0e0;"></path><path d="M167.309,403.484c-20.807,8.603-46.329,4.393-63.269-10.437,19.607-8.331,46.311-2.457,63.269,10.437" style="fill:#e0e0e0;"></path><path d="M198.473,429.722c-16.002-15.839-22.024-40.995-14.929-62.363,15.286,14.839,20.233,41.73,14.929,62.363" style="fill:#e0e0e0;"></path><path d="M200.53,428.936c-20.807,8.604-46.329,4.393-63.269-10.437,19.607-8.331,46.311-2.457,63.269,10.437" style="fill:#e0e0e0;"></path><path d="M202.48,430.648c-43.67-25.971-77.255-66.58-94.569-114.348-17.314-47.767-17.55-100.464-.664-148.384l.943,.332c-16.81,47.703-16.575,100.161,.661,147.712,17.235,47.55,50.668,87.975,94.139,113.828l-.511,.859Z" style="fill:#e0e0e0;"></path></g></g><g><g><g><path d="M443.92,313.221h-180.746c-3.232,0-5.862-2.63-5.862-5.862V44.085c0-3.232,2.63-5.862,5.862-5.862h180.746c3.232,0,5.862,2.629,5.862,5.862V307.358c0,3.233-2.63,5.862-5.862,5.862ZM263.174,38.473c-3.095,0-5.612,2.518-5.612,5.612V307.358c0,3.095,2.518,5.612,5.612,5.612h180.746c3.095,0,5.612-2.517,5.612-5.612V44.085c0-3.094-2.518-5.612-5.612-5.612h-180.746Z" style="fill:#e0e0e0;"></path><path d="M235.493,313.221H54.746c-3.232,0-5.862-2.63-5.862-5.862V44.085c0-3.232,2.629-5.862,5.862-5.862H235.493c3.232,0,5.862,2.629,5.862,5.862V307.358c0,3.233-2.63,5.862-5.862,5.862ZM54.746,38.473c-3.094,0-5.612,2.518-5.612,5.612V307.358c0,3.095,2.518,5.612,5.612,5.612H235.493c3.095,0,5.612-2.517,5.612-5.612V44.085c0-3.094-2.518-5.612-5.612-5.612H54.746Z" style="fill:#e0e0e0;"></path></g><rect x="0" y="374.29" width="500" height=".25" style="fill:#e0e0e0;"></rect></g><rect x="51.672" y="388.555" width="16.06" height=".25" style="fill:#e0e0e0;"></rect><rect x="170.352" y="385.845" width="53.53" height=".25" style="fill:#e0e0e0;"></rect><rect x="68.732" y="397.845" width="36.25" height=".25" style="fill:#e0e0e0;"></rect><rect x="378.352" y="385.715" width="43.19" height=".25" style="fill:#e0e0e0;"></rect><rect x="430.452" y="385.715" width="6.33" height=".25" style="fill:#e0e0e0;"></rect><rect x="316.212" y="391.945" width="53.89" height=".25" style="fill:#e0e0e0;"></rect></g></g><g id="freepik--Shadow--inject-76"><path d="M391.514,465.627c0,7.183-63.358,13.006-141.514,13.006s-141.514-5.823-141.514-13.006,63.358-13.006,141.514-13.006,141.514,5.823,141.514,13.006Z" style="fill:#f5f5f5;"></path></g><g id="freepik--Stars--inject-76"><g><polygon points="337.574 155.706 339.458 156.765 337.549 157.78 336.49 159.664 335.475 157.755 333.591 156.696 335.5 155.681 336.559 153.797 337.574 155.706" style="fill:#407BFF;"></polygon><polygon points="86.815 319.865 88.699 320.924 86.791 321.939 85.732 323.823 84.717 321.915 82.833 320.855 84.741 319.841 85.801 317.957 86.815 319.865" style="fill:#407BFF;"></polygon><polygon points="133.13 183.525 135.014 184.585 133.105 185.6 132.046 187.484 131.031 185.575 129.147 184.516 131.056 183.501 132.115 181.617 133.13 183.525" style="fill:#407BFF;"></polygon><polygon points="414.098 305.943 415.982 307.002 414.074 308.017 413.014 309.901 411.999 307.992 410.116 306.933 412.024 305.918 413.083 304.034 414.098 305.943" style="fill:#407BFF;"></polygon><polygon points="299.135 118.009 300.189 118.602 299.121 119.169 298.529 120.223 297.961 119.156 296.907 118.563 297.975 117.995 298.567 116.941 299.135 118.009" style="fill:#407BFF;"></polygon><polygon points="350.086 229.303 351.139 229.895 350.072 230.463 349.479 231.517 348.912 230.449 347.858 229.856 348.925 229.289 349.518 228.235 350.086 229.303" style="fill:#407BFF;"></polygon><polygon points="415.021 134.146 416.075 134.739 415.007 135.307 414.415 136.361 413.847 135.293 412.793 134.7 413.861 134.133 414.453 133.079 415.021 134.146" style="fill:#407BFF;"></polygon><polygon points="251.692 53.78 252.746 54.372 251.678 54.94 251.086 55.994 250.518 54.926 249.464 54.334 250.532 53.766 251.124 52.712 251.692 53.78" style="fill:#407BFF;"></polygon><polygon points="340.045 334.449 341.099 335.041 340.031 335.609 339.438 336.663 338.871 335.595 337.817 335.003 338.884 334.435 339.477 333.381 340.045 334.449" style="fill:#407BFF;"></polygon><polygon points="155.943 354.744 156.997 355.337 155.929 355.904 155.336 356.958 154.769 355.891 153.715 355.298 154.782 354.73 155.375 353.676 155.943 354.744" style="fill:#407BFF;"></polygon><polygon points="173.428 278.579 174.482 279.171 173.414 279.739 172.821 280.793 172.254 279.725 171.2 279.133 172.267 278.565 172.86 277.511 173.428 278.579" style="fill:#407BFF;"></polygon><polygon points="274.833 424.049 275.887 424.641 274.819 425.209 274.226 426.263 273.659 425.195 272.605 424.603 273.672 424.035 274.265 422.981 274.833 424.049" style="fill:#407BFF;"></polygon><polygon points="159.065 79.44 160.82 80.426 159.042 81.371 158.056 83.126 157.11 81.349 155.356 80.362 157.133 79.417 158.12 77.662 159.065 79.44" style="fill:#407BFF;"></polygon><polygon points="374.905 96.259 377.164 97.529 374.876 98.747 373.605 101.006 372.388 98.717 370.128 97.447 372.417 96.23 373.688 93.97 374.905 96.259" style="fill:#407BFF;"></polygon><polygon points="316.024 407.011 318.284 408.281 315.995 409.499 314.724 411.758 313.507 409.469 311.248 408.199 313.537 406.982 314.807 404.722 316.024 407.011" style="fill:#407BFF;"></polygon><polygon points="206.337 383.172 208.596 384.442 206.307 385.659 205.037 387.919 203.82 385.63 201.56 384.36 203.849 383.143 205.119 380.883 206.337 383.172" style="fill:#407BFF;"></polygon><polygon points="86.425 117.233 87.607 117.897 86.409 118.534 85.745 119.717 85.108 118.519 83.925 117.854 85.123 117.217 85.788 116.035 86.425 117.233" style="fill:#407BFF;"></polygon><polygon points="209.289 119.78 210.471 120.445 209.274 121.082 208.609 122.264 207.972 121.066 206.79 120.402 207.987 119.765 208.652 118.582 209.289 119.78" style="fill:#407BFF;"></polygon></g></g><g id="freepik--Character--inject-76"><g><g><path d="M289.162,160.964s6.502,3.29,8.462,7.661c1.96,4.372,28.491,91.2,26.682,96.175-1.809,4.975-25.65,13.133-25.65,13.133l-11.735-90.456,2.241-26.512Z" style="fill:#263238;"></path><g><g><path d="M279.029,259.189h42.953c2.66,0,4.82,2.16,4.82,4.82v31.825h-47.772v-36.645h0Z" transform="translate(-56.945 79.343) rotate(-13.653)" style="fill:#407BFF;"></path><path d="M328.511,290.149l-4.389,1.066-7.563-31.134c-.294-1.212,.449-2.433,1.661-2.728h0c1.212-.294,2.433,.449,2.728,1.662l7.563,31.134Z" style="fill:#fff;"></path></g><g><path d="M322.345,290.608s-4-5.754-5.915-6.007c-1.915-.253-.962,2.334-.962,2.334,0,0-1.224-2.782-2.475-2.422-1.502,.432-.491,3.138-.491,3.138,0,0-1.092-2.231-2.184-1.836-1.132,.409-.209,3.544-.209,3.544,0,0-1.066-1.425-1.67-.721-.603,.704,1.228,7.395,3.078,8.954,1.85,1.559,10.378-1.059,12.088-2.066,.491-.289,1.24-.928,1.267-3.544,.006-.548-.412-1.019-.958-1.07l-1.449-.135-.121-.169Z" style="fill:#fdbbb5;"></path><path d="M315.331,286.985l.005,.012,2.365,4.747c.032,.064,.117,.088,.19,.053,.073-.034,.107-.117,.075-.177l-2.366-4.748c-.032-.064-.117-.088-.19-.054-.069,.032-.103,.105-.08,.166Z" style="opacity:.2;"></path><path d="M312.417,287.842v.003l1.911,4.741c.027,.066,.109,.095,.183,.066,.076-.03,.106-.093,.088-.173l-1.909-4.741c-.027-.066-.109-.095-.184-.066-.074,.029-.113,.105-.089,.17Z" style="opacity:.2;"></path><path d="M310.033,289.573l1.318,3.563c.025,.067,.106,.098,.182,.07,.075-.028,.117-.105,.092-.171l-1.318-3.563c-.025-.067-.106-.098-.182-.07-.075,.028-.117,.105-.092,.172Z" style="opacity:.2;"></path></g></g><path d="M298.656,277.933l-9.268-88.009s12.181,54.674,10.642,70.56c-1.539,15.886-1.374,17.449-1.374,17.449Z" style="opacity:.3;"></path></g><g><path d="M249.601,153.216c-.322-6.149-1.3-16.318-3.37-22.117l-.556-5.514c-4.188-1.052-8.93,.633-11.516,4.09-2.116,2.83-2.749,6.481-3.096,9.997-.347,3.516-.489,7.13-1.832,10.398-1.343,3.268-4.226,6.192-7.754,6.384,.632,2.258,2.958,3.71,5.28,4.033,2.322,.324,4.665-.256,6.938-.832-.466,2.781-2.783,5.156-5.552,5.69,1.187,1.459,3.105,2.166,4.982,2.291,1.876,.125,3.745-.264,5.585-.651,3.068-.645,6.349-1.408,8.458-3.729,2.379-2.619,2.618-6.506,2.433-10.04Z" style="fill:#263238;"></path><path d="M239.599,125.843l8.222,11.484,.335,1.903s-9.55-5.26-10.138-12.739c.561-.283,1.087-.497,1.581-.648Z" style="opacity:.3;"></path><g><polygon points="298.267 96.024 297.834 94.048 255.455 83.878 217.269 111.669 217.701 113.645 298.267 96.024" style="fill:#407BFF;"></polygon><path d="M298.267,96.024s-38.643,24.243-38.923,24.008c-.28-.235-41.643-6.386-41.643-6.386l38.022-27.956,42.543,10.334Z" style="fill:#407BFF;"></path><path d="M298.267,96.024s-38.643,24.243-38.923,24.008c-.28-.235-41.643-6.386-41.643-6.386l38.022-27.956,42.543,10.334Z" style="opacity:.4;"></path><path d="M284.192,107.625c-.271-1.524-.479-3.343-.699-5.268-.625-5.458-1.334-11.644-3.694-13.271-.243-.168-.49-.123-.615-.082-.23,.076-.415,.258-.493,.485l-.709-.242c.153-.449,.515-.806,.967-.956,.44-.144,.903-.08,1.276,.177,2.641,1.82,3.37,8.186,4.014,13.803,.219,1.914,.426,3.721,.692,5.223l-.738,.131Z" style="fill:#263238;"></path><path d="M283.517,108.655c.218,.602,.882,.913,1.483,.695,.602-.218,.913-.882,.695-1.483s-.882-.913-1.483-.695c-.602,.218-.913,.882-.695,1.483Z" style="fill:#263238;"></path><path d="M284.858,108.378c1.26,.791,1.786,2.342,2.122,3.791,.337,1.449,.616,3.003,1.62,4.1,.293,.32,.651,.609,.792,1.019,.141,.41-.088,.984-.522,.982-.75-.704-1.355-1.561-1.769-2.503,.205,1.377,.558,2.733,1.051,4.035-.59,.311-1.195,.628-1.856,.721-.661,.093-1.399-.078-1.817-.599-.233-.29-.345-.656-.441-1.015-.941-3.501-.849-7.274,.262-10.725" style="fill:#263238;"></path><polygon points="232.469 115.99 237.237 108.841 239.019 116.944 232.469 115.99" style="opacity:.3;"></polygon></g><g><path d="M266.979,109.167s9.373,16.891,9.817,22.145c3.588,3.055,6.138-3.139,6.004-11.441-.11-6.795-3.654-14.127-9.526-16.768-8.248-3.709-6.295,6.064-6.295,6.064Z" style="fill:#263238;"></path><g><g><path d="M265.216,157.997c-1.57-1.568-1.195-3.454-.897-5.736,.207-1.755,.773-3.578,1.447-5.354l-2.342-2.546-12.184-11.436c.581,7.91,1.549,21.495-4.486,26.019l25.469,16.191-2.355-15.495s-2.348-.352-4.652-1.643Z" style="fill:#fdbbb5;"></path><path d="M264.247,152.94c-3.302-1.802-6.97-5.002-6.682-8.82,.131-1.608,.422-3.138,.77-4.124l6.881,8.455c-.488,1.421-.651,2.354-.969,4.489Z" style="opacity:.2;"></path><path d="M247.451,120.32c1.544,12.036,1.943,17.15,8.405,23.256,9.719,9.185,24.025,5.458,26.073-6.603,1.844-10.855-.991-28.715-13.031-33.36-11.862-4.577-22.991,4.67-21.447,16.707Z" style="fill:#fdbbb5;"></path><path d="M263.829,124.563c.01,1.133,.66,2.095,1.454,2.149,.793,.054,1.428-.82,1.418-1.953-.01-1.133-.66-2.095-1.453-2.149-.793-.054-1.428,.821-1.418,1.954Z" style="fill:#263238;"></path><path d="M275.32,123.682c-.053,1.097,.541,2.068,1.326,2.169,.786,.101,1.467-.707,1.52-1.804,.053-1.096-.54-2.067-1.326-2.168s-1.467,.706-1.52,1.803Z" style="fill:#263238;"></path><path d="M260.615,120.673c.154,.01,.309-.042,.423-.158,1.78-1.808,3.902-1.3,3.927-1.294,.314,.076,.62-.114,.677-.434,.055-.319-.157-.643-.476-.723-.111-.027-2.774-.667-4.983,1.577-.22,.224-.207,.601,.028,.843,.114,.116,.259,.18,.404,.189Z" style="fill:#263238;"></path><path d="M279.331,118.201c.14-.046,.259-.142,.326-.278,.138-.282,.003-.629-.301-.776-3.048-1.47-5.423-.195-5.523-.139-.282,.156-.365,.506-.185,.783,.179,.276,.552,.374,.834,.22,.092-.051,1.95-1.013,4.374,.156,.157,.076,.328,.083,.476,.034Z" style="fill:#263238;"></path><path d="M278.336,107.198c-2.555-5.311-12.963-10.246-24.931-5.118-10.812,4.617-25.01,23.483-1.765,37.915,1.81,1.124,.505-11.744,1.539-13.231,6.21-8.932,14.883-15.864,25.118-19.553l.039-.014Z" style="fill:#263238;"></path><path d="M244.154,130.295c1.516,2.425,3.89,3.896,6.035,4.352,3.225,.686,4.69-4.514,3.483-7.677-1.087-2.847-4.297-4.641-7.385-3.9-3.042,.731-3.866,4.452-2.132,7.225Z" style="fill:#fdbbb5;"></path><path d="M271.882,122.745s2.053,4.452,4.287,7.193c.39,.479,.186,1.206-.386,1.441-1.471,.603-3.235,.17-3.235,.17l-.666-8.803Z" style="fill:#e97a75;"></path></g><path d="M265.007,122.57l2.801-.524s-1.612,1.995-2.801,.524Z" style="fill:#263238;"></path><path d="M276.434,121.893l2.827-.356c-1.376,1.509-2.473,.853-2.827,.356Z" style="fill:#263238;"></path></g><path d="M249.464,131.603c-.019,0-.039-.002-.058-.007-1.937-.461-2.823-1.48-3.226-2.255-.47-.904-.432-1.743-.24-2.227,.387-.975,1.583-1.718,2.745-1.271,.129,.049,.193,.194,.144,.323-.049,.128-.193,.193-.323,.144-.872-.334-1.807,.252-2.1,.988-.145,.364-.174,1.056,.219,1.812,.354,.682,1.146,1.583,2.898,2,.134,.032,.217,.167,.185,.301-.027,.115-.13,.192-.243,.192Z" style="opacity:.2;"></path></g><path d="M273.659,135.492c-.907,1.332-2.017,3.927-2.017,3.927-.253-.058-.506-.116-.756-.188-3.414-.877-4.709-2.411-5.108-3.847-.215-.786-.153-1.55-.024-2.152,.143-.698,.403-1.163,.403-1.163,1.533,1.546,4.653,2.608,6.343,3.106,.706,.216,1.159,.317,1.159,.317Z" style="fill:#263238;"></path><path d="M272.499,135.175l-.625,1.142c-3.214-.833-5.365-1.851-6.121-3.085,.143-.698,.403-1.163,.403-1.163,1.533,1.546,4.653,2.608,6.343,3.106Z" style="fill:#fff;"></path><path d="M270.886,139.231c-3.414-.877-4.709-2.411-5.108-3.847,1.152,.343,2.503,.886,3.598,1.725,.84,.638,1.275,1.402,1.51,2.122Z" style="fill:#fb504e;"></path><g><path d="M281.788,114.288c.237,.384-1.963-12.694-1.963-12.694,0,0,.124-8.505-20.425-6.442,0,0-23.34,3.685-22.187,15.54l1.822,11.315s30.894-26.917,42.753-7.719Z" style="fill:#407BFF;"></path><path d="M281.788,114.288c.237,.384-1.963-12.694-1.963-12.694,0,0,.124-8.505-20.425-6.442,0,0-23.34,3.685-22.187,15.54l1.822,11.315s30.894-26.917,42.753-7.719Z" style="opacity:.2;"></path></g><path d="M238.427,118.232s14.541-15.147,32.459-13.686c0,0,9.324,.726,10.525,6.794l.377,2.949s-2.604-7.493-13.98-6.727c-11.375,.765-28.773,14.447-28.773,14.447l-.608-3.775Z" style="fill:#407BFF;"></path><polygon points="233.721 159.243 245.692 155.05 249.401 150.087 250 156.252 246.195 160.925 233.27 162.876 233.721 159.243" style="opacity:.3;"></polygon></g><polygon points="184.43 186.77 185.61 198.816 194.685 187.892 192.107 181.859 184.43 186.77" style="fill:#fdbbb5;"></polygon><g><path d="M220.073,163.838s-1.516-.595-3.223,.97c-1.707,1.565-17.173,31.853-17.173,31.853l-5.269-14.816-21.566,37.059s12.428,25.426,25.231,26.564c12.803,1.138,25.303-28.134,25.303-28.134l1.583-35.74-4.885-17.757Z" style="fill:#263238;"></path><path d="M199.365,196.286c2.867,6.328,3.603,13.704,2.035,20.473,.879-6.905,.189-13.876-2.035-20.473h0Z"></path></g><g><g><path d="M225.404,449.458l1.108,1.499,2.199-.92,1.371,6.583,9.276,12.581s3.53,.549,.749-6.6c-.126-.325-.227-.684-.294-1.083-.825-4.276,.991-12.474,.991-12.474l-5.09-6.903s-.531,.008-1.434,.153c-2.108,.342-6.325,1.34-8.877,7.164Z" style="fill:#407BFF;"></path><path d="M225.404,449.458l1.108,1.499,2.199-.92,1.371,6.583,9.276,12.581s3.53,.549,.749-6.6c-.126-.325-.227-.684-.294-1.083-.825-4.276,.991-12.474,.991-12.474l-5.09-6.903s-.531,.008-1.434,.153c-2.108,.342-6.325,1.34-8.877,7.164Z" style="opacity:.2;"></path><path d="M234.281,442.293l-.021,.015c1.71,.178,.21,7.547,.898,11.681,.62,3.689,2.258,7.168,4.656,7.529-.825-4.276,2.152-14.021,2.152-14.021l-4.093-5.551s-2.689,.204-3.592,.348Z" style="fill:#e97a75;"></path></g><g><path d="M236.252,469.046l1.89-.003,.525-2.284,6.255,2.765h15.85s2.521-2.481-5.028-4.457c-.343-.091-.7-.22-1.069-.4-4.025-1.847-9.753-8.087-9.753-8.087h-8.697s-.303,.426-.713,1.227c-.95,1.873-2.591,5.805,.739,11.239Z" style="fill:#407BFF;"></path><path d="M235.512,457.806v.026c1.148-1.253,6.374,4.25,10.202,6.123,3.418,1.667,7.259,2.403,8.961,.711-4.025-1.847-10.417-10.332-10.417-10.332l-6.988,.207s-1.349,2.465-1.758,3.265Z" style="fill:#fdbbb5;"></path></g><path d="M254.011,383.119c4.314-11.546,9.596-22.902,15.943-32.093-25.94-72.252-25.128-104.577-25.128-104.577l31.237-.025,3.328,12.083s7.805,30.081,10.08,47.349l6.519,38.39v.108c.443,7.972-1.369,15.891-5.255,22.902-4.244,7.661-11.753,16.755-15.873,25.012-5.42,10.896-10.536,21.819-14.906,31.592-4.604,10.3-8.351,19.302-10.688,25.555-2.213,.244-8.891-3.655-10.813-7.187,0,0,4.729-30.13,15.556-59.109Z" style="fill:#263238;"></path><path d="M254.011,383.119c4.314-11.546,9.596-22.902,15.943-32.093-25.94-72.252-25.128-104.577-25.128-104.577l31.237-.025,3.328,12.083s7.805,30.081,10.08,47.349l6.519,38.39v.108c.443,7.972-1.369,15.891-5.255,22.902-4.244,7.661-11.753,16.755-15.873,25.012-5.42,10.896-10.536,21.819-14.906,31.592-4.604,10.3-8.351,19.302-10.688,25.555-2.213,.244-8.891-3.655-10.813-7.187,0,0,4.729-30.13,15.556-59.109Z" style="fill:#fff; opacity:.3;"></path><path d="M259.956,423.861c-4.604,10.3-8.351,19.302-10.688,25.555-2.213,.244-8.891-3.655-10.813-7.188,0,0,4.729-30.13,15.556-59.109,2.199,11.965,4.66,27.084,5.946,40.742Z" style="opacity:.2;"></path><path d="M268.175,247.109s-11.889,79.811-13.273,97.779c0,0-7.345,87.165-6.028,109.073l-16.381,.773s-11.018-66.019-5.447-108.385c.483-5.523-4.591-41.544-5.393-55.894-1.93-34.522,12.497-44.007,12.497-44.007l34.024,.66Z" style="fill:#263238;"></path><g style="opacity:.3;"><path d="M268.175,247.109s-11.889,79.811-13.273,97.779c0,0-7.345,87.165-6.028,109.073l-16.381,.773s-11.018-66.019-5.447-108.385c.483-5.523-4.591-41.544-5.393-55.894-1.93-34.522,12.497-44.007,12.497-44.007l34.024,.66Z" style="fill:#fff;"></path></g></g><g><g><polygon points="242.461 158.062 245.161 157.386 249.757 151.245 257.043 156.508 263.705 152.563 266.701 156.845 272.925 157.372 257.173 187.477 242.461 158.062" style="fill:#407BFF;"></polygon><polygon points="242.461 158.062 245.161 157.386 249.757 151.245 257.043 156.508 263.705 152.563 266.701 156.845 272.925 157.372 257.173 187.477 242.461 158.062" style="fill:#fff; opacity:.8;"></polygon><path d="M245.161,157.386l7.146,6.202,4.736-6.659,4.439,5.767,5.218-5.851s-5.114,7.229-5.271,7.169c-.157-.06-4.387-6.299-4.387-6.299l-4.788,7.288-7.094-7.617Z" style="opacity:.2;"></path></g><path d="M218.22,164.248l24.602-6.819,15.905,25.527,10.996-26.705,19.44,4.713,.226,28.96,18.705,177.623s-33.159,11.081-57.115,9.117c-23.956-1.963-40.73-5.819-40.73-5.819l11.228-138.244-3.256-68.352Z" style="fill:#263238;"></path><path d="M218.778,165.402c.768,6.297,2.179,18.967,2.866,25.271l-.169-.15c16.584-.091,51.978-.991,67.748-.592-.256-6.526-.642-19.674-.821-26.203,.309,6.53,.912,19.66,1.151,26.191l.007,.17-.171,.002c-16.926,.267-50.988,.657-67.912,.769h-.154l-.016-.151c-.654-6.301-1.95-18.999-2.531-25.307h0Z"></path><path d="M240.433,191.043c.34,2.192,.343,4.392,0,6.584-.343-2.192-.34-4.392,0-6.584h0Z"></path><path d="M245.591,190.809c1.156,22.463,2.07,47.189,2.569,69.676-1.158-22.467-2.067-47.185-2.569-69.676h0Z"></path><path d="M264.396,189.924c.327,16.707,.33,35.085,0,51.792-.33-16.707-.327-35.085,0-51.792h0Z"></path><path d="M269.554,189.69c.964,10.515,1.669,22.109,1.977,32.663-.967-10.515-1.666-22.109-1.977-32.663h0Z"></path><path d="M221.476,190.691c.017,1.381-.488,31.663-.488,31.663,0,0-2.314-6.599-2.538-11.515-.483-10.59,3.027-20.148,3.027-20.148Z" style="opacity:.3;"></path></g><g><path d="M183.944,146.184c2.855-.149,5.652-1.254,7.837-3.097,.757-.639,1.493-1.49,1.429-2.479-.05-.776-.587-1.432-1.161-1.957-.875-.8-1.897-1.438-3.001-1.872-.928-.365-2.016-.574-2.892-.098-.931,.505-1.33,1.608-1.654,2.617-.466,1.449-.931,2.898-1.396,4.348-.11,.343-.222,.699-.175,1.056,.046,.357,.299,.714,.656,.758,.594,.073,.923-.652,1.085-1.229,.369-1.318,.895-2.644,1.878-3.595,.983-.952,2.519-1.44,3.764-.872,.341,.156,.688,.475,.61,.842-.052,.247-.278,.412-.487,.553-2.303,1.555-4.607,3.111-6.91,4.666" style="fill:#407BFF;"></path><g><path d="M186.694,160.075s-.219-1.435,.699-1.163c.918,.273,1.299,.452,1.352,2.237,.053,1.785,.711,5.252,1.545,6.557,.834,1.305,1.985,1.744,1.909,4.509-.076,2.764,.02,8.391,.02,8.391l.002,1.519-7.823,5.053c.012-.147-7.428-8.978-7.497-10.567-.069-1.589-.266-4.029,1.046-4.961,0,0-.273-1.506,.447-3.674,.72-2.168,.901-1.955,.901-1.955,0,0-2.518-1.837-1.475-3.435,1.043-1.597,2.941-1.732,2.941-1.732l5.932-.779Z" style="fill:#fdbbb5;"></path><g><path d="M182.086,117.883l6.236,57.102-6.049,.73-5.842-57.437s1.838-1.562,5.655-.396Z" style="fill:#407BFF;"></path><path d="M182.086,117.883l6.236,57.102-6.049,.73-5.842-57.437s1.838-1.562,5.655-.396Z" style="fill:#fff; opacity:.8;"></path><path d="M185.207,146.462s-2.278,3.554-5.752,1.549l-.473-4.656s4.726,.75,5.687-1.827l.539,4.934Z" style="fill:#407BFF;"></path></g><path d="M179.92,161.128c.01,.095,4.069,.222,3.445,2.36s-4.645,.91-4.645,.91" style="fill:#fdbbb5;"></path><path d="M179.295,166.02s.405-.609,1.348-.339c.944,.27,6.562,3.865,6.902,4.585,.34,.72,.617,1.917-.179,2.207l-.687,.137s2.318,1.186,2.205,2.175c-.113,.989-1.299,1.729-2.745,.903,0,0,1.254,.81,.75,1.864-.504,1.053-1.055,1.105-2.109,.601-1.053-.504-3.308-.881-3.308-.881l-1.516,1.229" style="fill:#fdbbb5;"></path><path d="M187.332,176.361c-.267,0-.58-.054-.938-.197-.128-.051-.191-.197-.14-.325,.051-.128,.196-.19,.325-.14,.536,.214,.993,.218,1.357,.011,.572-.324,.726-1.027,.76-1.235,.079-.487-1.267-1.324-2.201-1.737l-3.339-1.94c-.406-.236-.866-.504-1.342-.552-.401-.039-.892,.122-1.049,.506-.053,.128-.198,.189-.327,.136-.127-.053-.188-.199-.136-.327,.263-.638,.99-.875,1.562-.812,.583,.059,1.093,.355,1.543,.617l3.314,1.928c.421,.184,2.636,1.217,2.467,2.262-.113,.703-.49,1.297-1.006,1.589-.2,.114-.483,.216-.851,.216Z" style="fill:#e97a75;"></path><path d="M180.208,178.771c-.064,0-.129-.025-.178-.074-.097-.098-.096-.256,.002-.354l1.264-1.249c.065-.063,.16-.088,.244-.062l2.062,.587c.657,.23,2.58,.717,2.968,0,.47-.873-.263-1.517-.294-1.544-.537-.323-2.489-1.369-3.937-1.623-.806-.139-1.652-.021-2.386,.341-.124,.06-.274,.01-.335-.114-.061-.124-.01-.274,.114-.335,.827-.407,1.783-.544,2.692-.384,1.524,.267,3.553,1.352,4.143,1.711,.406,.339,.975,1.198,.443,2.185-.659,1.222-3.265,.344-3.56,.239l-1.907-.543-1.16,1.146c-.049,.048-.112,.072-.176,.072Z" style="fill:#e97a75;"></path></g><path d="M182.492,166.83c-.044,0-.089-.008-.133-.024-.994-.377-2.074-.482-3.121-.302-.204,.034-.398-.102-.433-.306s.102-.398,.306-.433c1.18-.203,2.395-.085,3.514,.34,.194,.073,.292,.29,.218,.483-.057,.15-.199,.242-.351,.242Z" style="fill:#e97a75;"></path><path d="M180.546,145.34c-1.965-2.076-4.621-3.488-7.441-3.956-.977-.162-2.102-.17-2.813,.52-.558,.541-.709,1.375-.736,2.153-.042,1.185,.136,2.377,.521,3.498,.324,.943,.871,1.907,1.801,2.265,.988,.381,2.087-.031,3.064-.438,1.405-.586,2.81-1.171,4.215-1.757,.332-.139,.676-.285,.917-.552,.242-.267,.35-.691,.152-.991-.33-.5-1.095-.28-1.638-.029-1.242,.574-2.593,1.033-3.955,.902-1.362-.131-2.729-.983-3.105-2.299-.103-.361-.085-.832,.245-1.01,.222-.12,.494-.055,.737,.012,2.678,.744,5.356,1.489,8.034,2.233" style="fill:#407BFF;"></path></g><path d="M257.081,373.881l4.439-68.801s3.877,37.923-.344,50.312c-4.615,13.549-4.095,18.489-4.095,18.489Z" style="opacity:.3;"></path><path d="M235.563,159.441l19.798,30.896h7.728s14.408-32.201,14.396-32.204c-.012-.003-7.763-1.882-7.763-1.882l-10.996,26.705-15.905-25.527-7.258,2.012Z" style="fill:#407BFF;"></path></g></g></svg>
